<svg xmlns="http://www.w3.org/2000/svg" viewBox="0 0 256 256" role="img" aria-label="PANDA Collaborator icon">
  <rect x="8" y="8" width="240" height="240" rx="42" fill="#14141f"/>
  <rect x="20" y="20" width="216" height="216" rx="28" fill="#1a1a2e" stroke="#2a2a3e" stroke-width="6"/>
  <circle cx="80" cy="82" r="34" fill="#10101a"/>
  <circle cx="176" cy="82" r="34" fill="#10101a"/>
  <circle cx="128" cy="128" r="80" fill="#e0ddd5"/>
  <circle cx="92" cy="124" r="26" fill="#10101a"/>
  <circle cx="164" cy="124" r="26" fill="#10101a"/>
  <circle cx="102" cy="116" r="7" fill="#f0b98c"/>
  <circle cx="154" cy="116" r="7" fill="#f0b98c"/>
  <ellipse cx="128" cy="146" rx="16" ry="12" fill="#10101a"/>
  <path d="M110 166c11 14 25 14 36 0" fill="none" stroke="#10101a" stroke-width="8" stroke-linecap="round"/>
  <path d="M62 188c31 22 99 22 132 0" fill="none" stroke="#5fa0a8" stroke-width="8" stroke-linecap="round"/>
  <circle cx="64" cy="188" r="12" fill="#e8a87c" stroke="#1a1a2e" stroke-width="5"/>
  <circle cx="128" cy="205" r="12" fill="#7fb069" stroke="#1a1a2e" stroke-width="5"/>
  <circle cx="192" cy="188" r="12" fill="#e8a87c" stroke="#1a1a2e" stroke-width="5"/>
  <text x="128" y="234" text-anchor="middle" font-family="Segoe UI, Arial, sans-serif" font-size="23" font-weight="900" fill="#e8a87c">PC</text>
</svg>
